<mxfile host="65bd71144e">
    <diagram id="5w8PpjfZcQBBPl3qTHrv" name="Page-1">
        <mxGraphModel dx="1994" dy="1604" grid="1" gridSize="10" guides="1" tooltips="1" connect="1" arrows="1" fold="1" page="1" pageScale="1" pageWidth="1200" pageHeight="1200" math="0" shadow="0">
            <root>
                <mxCell id="0"/>
                <mxCell id="1" parent="0"/>
                <mxCell id="2" value="" style="shape=image;verticalLabelPosition=bottom;labelBackgroundColor=default;verticalAlign=top;aspect=fixed;imageAspect=0;image=https://cloudian.com/wp-content/uploads/2024/03/kafka-logo.png;fontColor=#666666;" parent="1" vertex="1">
                    <mxGeometry x="280" y="80" width="120" height="125.44" as="geometry"/>
                </mxCell>
                <mxCell id="3" value="Player Events" style="sketch=0;outlineConnect=0;fontColor=#232F3E;gradientColor=none;fillColor=#232F3D;strokeColor=none;dashed=0;verticalLabelPosition=bottom;verticalAlign=top;align=center;html=1;fontSize=12;fontStyle=1;aspect=fixed;pointerEvents=1;shape=mxgraph.aws4.data_stream;" parent="1" vertex="1">
                    <mxGeometry y="320" width="120" height="120" as="geometry"/>
                </mxCell>
                <mxCell id="4" value="" style="outlineConnect=0;dashed=0;verticalLabelPosition=bottom;verticalAlign=top;align=center;html=1;shape=mxgraph.aws3.queue;fillColor=#666666;gradientColor=none;strokeColor=#666666;" parent="1" vertex="1">
                    <mxGeometry x="280" y="240" width="120" height="40" as="geometry"/>
                </mxCell>
                <mxCell id="5" value="" style="outlineConnect=0;dashed=0;verticalLabelPosition=bottom;verticalAlign=top;align=center;html=1;shape=mxgraph.aws3.queue;fillColor=#666666;gradientColor=none;strokeColor=#666666;" parent="1" vertex="1">
                    <mxGeometry x="280" y="320" width="120" height="40" as="geometry"/>
                </mxCell>
                <mxCell id="6" value="" style="outlineConnect=0;dashed=0;verticalLabelPosition=bottom;verticalAlign=top;align=center;html=1;shape=mxgraph.aws3.queue;fillColor=#666666;gradientColor=none;strokeColor=#666666;" parent="1" vertex="1">
                    <mxGeometry x="280" y="398" width="120" height="40" as="geometry"/>
                </mxCell>
                <mxCell id="7" value="" style="outlineConnect=0;dashed=0;verticalLabelPosition=bottom;verticalAlign=top;align=center;html=1;shape=mxgraph.aws3.queue;fillColor=#666666;gradientColor=none;strokeColor=#666666;" parent="1" vertex="1">
                    <mxGeometry x="280" y="480" width="120" height="40" as="geometry"/>
                </mxCell>
                <mxCell id="8" value="" style="shape=singleArrow;whiteSpace=wrap;html=1;arrowWidth=0.4292302058293269;arrowSize=0.5619683837890626;" parent="1" vertex="1">
                    <mxGeometry x="160" y="320" width="80" height="120" as="geometry"/>
                </mxCell>
                <mxCell id="9" value="" style="shape=singleArrow;whiteSpace=wrap;html=1;arrowWidth=0.4292302058293269;arrowSize=0.5619683837890626;" parent="1" vertex="1">
                    <mxGeometry x="440" y="320" width="80" height="120" as="geometry"/>
                </mxCell>
                <mxCell id="10" value="" style="sketch=0;html=1;aspect=fixed;strokeColor=none;shadow=0;fillColor=#FF8000;verticalAlign=top;labelPosition=center;verticalLabelPosition=bottom;shape=mxgraph.gcp2.view_list" parent="1" vertex="1">
                    <mxGeometry x="590" y="80" width="60" height="74.07" as="geometry"/>
                </mxCell>
                <mxCell id="13" value="&lt;font&gt;Leaderbaord Service&lt;/font&gt;" style="text;strokeColor=none;align=center;fillColor=none;html=1;verticalAlign=middle;whiteSpace=wrap;rounded=0;fontStyle=1;fontSize=24;" parent="1" vertex="1">
                    <mxGeometry x="560" y="170" width="120" height="30" as="geometry"/>
                </mxCell>
                <mxCell id="14" value="Service Instance" style="rounded=0;whiteSpace=wrap;html=1;strokeWidth=3;strokeColor=#666666;" parent="1" vertex="1">
                    <mxGeometry x="560" y="240" width="120" height="40" as="geometry"/>
                </mxCell>
                <mxCell id="15" value="Service Instance" style="rounded=0;whiteSpace=wrap;html=1;strokeWidth=3;strokeColor=#666666;" parent="1" vertex="1">
                    <mxGeometry x="560" y="320" width="120" height="40" as="geometry"/>
                </mxCell>
                <mxCell id="16" value="Service Instance" style="rounded=0;whiteSpace=wrap;html=1;strokeWidth=3;strokeColor=#666666;" parent="1" vertex="1">
                    <mxGeometry x="560" y="398" width="120" height="40" as="geometry"/>
                </mxCell>
                <mxCell id="17" value="Service Instance" style="rounded=0;whiteSpace=wrap;html=1;strokeWidth=3;strokeColor=#666666;" parent="1" vertex="1">
                    <mxGeometry x="560" y="479" width="120" height="40" as="geometry"/>
                </mxCell>
                <mxCell id="20" value="" style="image;aspect=fixed;html=1;points=[];align=center;fontSize=12;image=img/lib/azure2/databases/Azure_Database_PostgreSQL_Server.svg;" parent="1" vertex="1">
                    <mxGeometry x="940" y="120" width="80" height="106.67" as="geometry"/>
                </mxCell>
                <mxCell id="21" value="" style="shape=singleArrow;whiteSpace=wrap;html=1;arrowWidth=0.4292302058293269;arrowSize=0.5619683837890626;rotation=-30;" parent="1" vertex="1">
                    <mxGeometry x="750" y="250" width="80" height="120" as="geometry"/>
                </mxCell>
                <mxCell id="22" value="" style="image;aspect=fixed;html=1;points=[];align=center;fontSize=12;image=img/lib/azure2/databases/Azure_Database_PostgreSQL_Server.svg;" parent="1" vertex="1">
                    <mxGeometry x="880" y="240" width="80" height="106.67" as="geometry"/>
                </mxCell>
                <mxCell id="23" value="" style="image;aspect=fixed;html=1;points=[];align=center;fontSize=12;image=img/lib/azure2/databases/Azure_Database_PostgreSQL_Server.svg;" parent="1" vertex="1">
                    <mxGeometry x="1000" y="240" width="80" height="106.67" as="geometry"/>
                </mxCell>
                <mxCell id="24" value="" style="shape=singleArrow;whiteSpace=wrap;html=1;arrowWidth=0.4292302058293269;arrowSize=0.5619683837890626;rotation=35;" parent="1" vertex="1">
                    <mxGeometry x="750" y="390" width="80" height="120" as="geometry"/>
                </mxCell>
                <mxCell id="25" value="" style="image;sketch=0;aspect=fixed;html=1;points=[];align=center;fontSize=12;image=img/lib/mscae/Cache_Redis_Product.svg;" parent="1" vertex="1">
                    <mxGeometry x="880" y="480" width="80" height="67.2" as="geometry"/>
                </mxCell>
                <mxCell id="26" value="" style="image;sketch=0;aspect=fixed;html=1;points=[];align=center;fontSize=12;image=img/lib/mscae/Cache_Redis_Product.svg;" parent="1" vertex="1">
                    <mxGeometry x="1000" y="479" width="80" height="67.2" as="geometry"/>
                </mxCell>
                <mxCell id="27" value="" style="image;sketch=0;aspect=fixed;html=1;points=[];align=center;fontSize=12;image=img/lib/mscae/Cache_Redis_Product.svg;" parent="1" vertex="1">
                    <mxGeometry x="940" y="397.99999999999994" width="80" height="67.2" as="geometry"/>
                </mxCell>
                <mxCell id="28" value="&lt;font&gt;Postgres Instances&lt;/font&gt;" style="text;strokeColor=none;align=center;fillColor=none;html=1;verticalAlign=middle;whiteSpace=wrap;rounded=0;fontStyle=1;fontSize=24;" parent="1" vertex="1">
                    <mxGeometry x="920" y="70" width="120" height="30" as="geometry"/>
                </mxCell>
                <mxCell id="29" value="&lt;font&gt;Redis Cluster&lt;/font&gt;" style="text;strokeColor=none;align=center;fillColor=none;html=1;verticalAlign=middle;whiteSpace=wrap;rounded=0;fontStyle=1;fontSize=24;" parent="1" vertex="1">
                    <mxGeometry x="920" y="570" width="120" height="30" as="geometry"/>
                </mxCell>
                <mxCell id="30" value="&lt;font&gt;Insert ScoreDeltas&lt;br&gt;ALWAYS&lt;/font&gt;" style="text;strokeColor=none;align=center;fillColor=none;html=1;verticalAlign=middle;whiteSpace=wrap;rounded=0;fontStyle=1;fontSize=12;" parent="1" vertex="1">
                    <mxGeometry x="730" y="220" width="120" height="30" as="geometry"/>
                </mxCell>
                <mxCell id="31" value="Increment Redis Sorted List&lt;br&gt;If Leaderboard is currently cached" style="text;strokeColor=none;align=center;fillColor=none;html=1;verticalAlign=middle;whiteSpace=wrap;rounded=0;fontStyle=1;fontSize=12;" parent="1" vertex="1">
                    <mxGeometry x="730" y="520" width="120" height="30" as="geometry"/>
                </mxCell>
                <mxCell id="32" value="&lt;font&gt;INCOMING&lt;/font&gt;&lt;div&gt;&lt;font&gt;EVENT FLOW&lt;/font&gt;&lt;/div&gt;" style="text;strokeColor=none;align=left;fillColor=none;html=1;verticalAlign=top;whiteSpace=wrap;rounded=0;fontStyle=1;fontSize=24;" parent="1" vertex="1">
                    <mxGeometry x="40" y="80" width="200" height="80" as="geometry"/>
                </mxCell>
                <mxCell id="33" value="" style="edgeStyle=none;orthogonalLoop=1;jettySize=auto;html=1;endArrow=none;endFill=0;" parent="1" edge="1">
                    <mxGeometry width="80" relative="1" as="geometry">
                        <mxPoint x="10" y="640" as="sourcePoint"/>
                        <mxPoint x="1190" y="640" as="targetPoint"/>
                        <Array as="points"/>
                    </mxGeometry>
                </mxCell>
                <mxCell id="34" value="&lt;font&gt;INCOMING&lt;/font&gt;&lt;div&gt;&lt;font&gt;REQUEST FLOW&lt;/font&gt;&lt;/div&gt;" style="text;strokeColor=none;align=left;fillColor=none;html=1;verticalAlign=top;whiteSpace=wrap;rounded=0;fontStyle=1;fontSize=24;" parent="1" vertex="1">
                    <mxGeometry x="40" y="680" width="200" height="80" as="geometry"/>
                </mxCell>
                <mxCell id="48" value="" style="sketch=0;html=1;aspect=fixed;strokeColor=none;shadow=0;fillColor=#FF8000;verticalAlign=top;labelPosition=center;verticalLabelPosition=bottom;shape=mxgraph.gcp2.view_list" parent="1" vertex="1">
                    <mxGeometry x="350" y="680" width="60" height="74.07" as="geometry"/>
                </mxCell>
                <mxCell id="49" value="&lt;font&gt;Leaderbaord Service&lt;/font&gt;" style="text;strokeColor=none;align=center;fillColor=none;html=1;verticalAlign=middle;whiteSpace=wrap;rounded=0;fontStyle=1;fontSize=24;" parent="1" vertex="1">
                    <mxGeometry x="320" y="770" width="120" height="30" as="geometry"/>
                </mxCell>
                <mxCell id="50" value="Service Instance" style="rounded=0;whiteSpace=wrap;html=1;strokeWidth=3;strokeColor=#666666;" parent="1" vertex="1">
                    <mxGeometry x="320" y="840" width="120" height="40" as="geometry"/>
                </mxCell>
                <mxCell id="51" value="Service Instance" style="rounded=0;whiteSpace=wrap;html=1;strokeWidth=3;strokeColor=#666666;" parent="1" vertex="1">
                    <mxGeometry x="320" y="920" width="120" height="40" as="geometry"/>
                </mxCell>
                <mxCell id="52" value="Service Instance" style="rounded=0;whiteSpace=wrap;html=1;strokeWidth=3;strokeColor=#666666;" parent="1" vertex="1">
                    <mxGeometry x="320" y="998" width="120" height="40" as="geometry"/>
                </mxCell>
                <mxCell id="53" value="Service Instance" style="rounded=0;whiteSpace=wrap;html=1;strokeWidth=3;strokeColor=#666666;" parent="1" vertex="1">
                    <mxGeometry x="320" y="1079" width="120" height="40" as="geometry"/>
                </mxCell>
                <mxCell id="54" value="" style="shape=actor;whiteSpace=wrap;html=1;" parent="1" vertex="1">
                    <mxGeometry x="80" y="900" width="40" height="60" as="geometry"/>
                </mxCell>
                <mxCell id="56" value="" style="edgeStyle=elbowEdgeStyle;elbow=horizontal;endArrow=classic;html=1;curved=0;rounded=0;endSize=8;startSize=8;exitX=1.004;exitY=0.686;exitDx=0;exitDy=0;exitPerimeter=0;entryX=0;entryY=0.5;entryDx=0;entryDy=0;strokeWidth=2;" parent="1" source="54" target="50" edge="1">
                    <mxGeometry width="50" height="50" relative="1" as="geometry">
                        <mxPoint x="160" y="960" as="sourcePoint"/>
                        <mxPoint x="210" y="910" as="targetPoint"/>
                        <Array as="points">
                            <mxPoint x="140" y="900"/>
                        </Array>
                    </mxGeometry>
                </mxCell>
                <mxCell id="57" value="GET / leaderboards / &lt;b&gt;A&lt;/b&gt;" style="text;html=1;align=center;verticalAlign=middle;resizable=0;points=[];autosize=1;strokeColor=none;fillColor=none;" parent="1" vertex="1">
                    <mxGeometry x="135" y="828" width="150" height="30" as="geometry"/>
                </mxCell>
                <mxCell id="59" value="" style="image;sketch=0;aspect=fixed;html=1;points=[];align=center;fontSize=12;image=img/lib/mscae/Cache_Redis_Product.svg;" vertex="1" parent="1">
                    <mxGeometry x="680" y="820" width="83.33" height="70" as="geometry"/>
                </mxCell>
                <mxCell id="61" value="&lt;span style=&quot;color: rgb(0, 0, 0);&quot;&gt;Is &lt;b&gt;A&lt;/b&gt; in Redis?&lt;/span&gt;" style="text;html=1;align=center;verticalAlign=middle;resizable=0;points=[];autosize=1;strokeColor=none;fillColor=none;" vertex="1" parent="1">
                    <mxGeometry x="510" y="825" width="100" height="30" as="geometry"/>
                </mxCell>
                <mxCell id="63" style="edgeStyle=none;html=1;strokeColor=#FF3333;strokeWidth=2;entryX=-0.02;entryY=0.498;entryDx=0;entryDy=0;entryPerimeter=0;" edge="1" parent="1">
                    <mxGeometry relative="1" as="geometry">
                        <mxPoint x="674.3334" y="854.8599999999999" as="targetPoint"/>
                        <mxPoint x="446" y="855" as="sourcePoint"/>
                    </mxGeometry>
                </mxCell>
                <mxCell id="64" style="edgeStyle=none;html=1;strokeColor=#FF3333;strokeWidth=2;entryX=1.017;entryY=0.617;entryDx=0;entryDy=0;entryPerimeter=0;" edge="1" parent="1">
                    <mxGeometry relative="1" as="geometry">
                        <mxPoint x="445.0400000000001" y="864.6800000000001" as="targetPoint"/>
                        <mxPoint x="673" y="865" as="sourcePoint"/>
                    </mxGeometry>
                </mxCell>
                <mxCell id="65" value="&lt;span style=&quot;color: rgb(0, 0, 0);&quot;&gt;&lt;b&gt;Cache Hit!&lt;/b&gt;&amp;nbsp;Return ZList&lt;/span&gt;" style="text;html=1;align=center;verticalAlign=middle;resizable=0;points=[];autosize=1;strokeColor=none;fillColor=none;" vertex="1" parent="1">
                    <mxGeometry x="490" y="864" width="150" height="30" as="geometry"/>
                </mxCell>
                <mxCell id="66" value="" style="shape=actor;whiteSpace=wrap;html=1;" vertex="1" parent="1">
                    <mxGeometry x="80" y="1038" width="40" height="60" as="geometry"/>
                </mxCell>
                <mxCell id="67" value="" style="edgeStyle=elbowEdgeStyle;elbow=horizontal;endArrow=classic;html=1;curved=0;rounded=0;endSize=8;startSize=8;exitX=1;exitY=0.75;exitDx=0;exitDy=0;entryX=0;entryY=0.5;entryDx=0;entryDy=0;strokeWidth=2;" edge="1" parent="1" source="66" target="52">
                    <mxGeometry width="50" height="50" relative="1" as="geometry">
                        <mxPoint x="130" y="951" as="sourcePoint"/>
                        <mxPoint x="330" y="870" as="targetPoint"/>
                        <Array as="points">
                            <mxPoint x="220" y="1020"/>
                        </Array>
                    </mxGeometry>
                </mxCell>
                <mxCell id="68" value="&lt;span style=&quot;color: rgb(0, 0, 0);&quot;&gt;GET / leaderboards /&amp;nbsp;&lt;/span&gt;&lt;b style=&quot;color: rgb(63, 63, 63); scrollbar-color: rgb(226, 226, 226) rgb(251, 251, 251);&quot;&gt;B&amp;nbsp;&lt;/b&gt;&lt;span style=&quot;color: rgb(0, 0, 0);&quot;&gt;/ players /&amp;nbsp;&lt;/span&gt;&lt;b style=&quot;color: rgb(63, 63, 63); scrollbar-color: rgb(226, 226, 226) rgb(251, 251, 251);&quot;&gt;1&lt;/b&gt;" style="text;html=1;align=center;verticalAlign=middle;resizable=0;points=[];autosize=1;strokeColor=none;fillColor=none;" vertex="1" parent="1">
                    <mxGeometry x="100" y="990" width="210" height="30" as="geometry"/>
                </mxCell>
                <mxCell id="71" style="edgeStyle=none;html=1;exitX=1;exitY=0;exitDx=0;exitDy=0;strokeColor=#FF3333;strokeWidth=2;entryX=-0.009;entryY=0.789;entryDx=0;entryDy=0;entryPerimeter=0;" edge="1" parent="1">
                    <mxGeometry relative="1" as="geometry">
                        <mxPoint x="682.2500300000002" y="875.23" as="targetPoint"/>
                        <mxPoint x="443" y="998" as="sourcePoint"/>
                        <Array as="points">
                            <mxPoint x="603" y="1000"/>
                        </Array>
                    </mxGeometry>
                </mxCell>
                <mxCell id="72" value="&lt;span style=&quot;color: rgb(0, 0, 0);&quot;&gt;Is &lt;b&gt;B&lt;/b&gt; in Redis?&lt;/span&gt;" style="text;html=1;align=center;verticalAlign=middle;resizable=0;points=[];autosize=1;strokeColor=none;fillColor=none;" vertex="1" parent="1">
                    <mxGeometry x="477.5" y="968" width="100" height="30" as="geometry"/>
                </mxCell>
                <mxCell id="73" style="edgeStyle=none;html=1;exitX=0.12;exitY=0.857;exitDx=0;exitDy=0;strokeColor=#FF3333;strokeWidth=2;entryX=1;entryY=0.25;entryDx=0;entryDy=0;exitPerimeter=0;" edge="1" parent="1" source="59" target="52">
                    <mxGeometry relative="1" as="geometry">
                        <mxPoint x="450" y="934.83" as="targetPoint"/>
                        <mxPoint x="680" y="934.7700000000001" as="sourcePoint"/>
                        <Array as="points">
                            <mxPoint x="610" y="1010"/>
                        </Array>
                    </mxGeometry>
                </mxCell>
                <mxCell id="74" value="&lt;span style=&quot;color: rgb(0, 0, 0);&quot;&gt;&lt;b&gt;Cache Miss!&lt;/b&gt;&lt;/span&gt;" style="text;html=1;align=center;verticalAlign=middle;resizable=0;points=[];autosize=1;strokeColor=none;fillColor=none;" vertex="1" parent="1">
                    <mxGeometry x="665" y="950" width="90" height="30" as="geometry"/>
                </mxCell>
                <mxCell id="77" style="edgeStyle=none;html=1;exitX=1;exitY=0.75;exitDx=0;exitDy=0;strokeColor=#3333FF;strokeWidth=2;" edge="1" parent="1">
                    <mxGeometry relative="1" as="geometry">
                        <mxPoint x="1000" y="870" as="targetPoint"/>
                        <mxPoint x="443" y="1028" as="sourcePoint"/>
                        <Array as="points">
                            <mxPoint x="723" y="1030"/>
                        </Array>
                    </mxGeometry>
                </mxCell>
                <mxCell id="78" value="" style="image;aspect=fixed;html=1;points=[];align=center;fontSize=12;image=img/lib/azure2/databases/Azure_Database_PostgreSQL_Server.svg;" vertex="1" parent="1">
                    <mxGeometry x="1000" y="813.33" width="80" height="106.67" as="geometry"/>
                </mxCell>
                <mxCell id="79" value="Query Database" style="text;html=1;align=center;verticalAlign=middle;resizable=0;points=[];autosize=1;strokeColor=none;fillColor=none;" vertex="1" parent="1">
                    <mxGeometry x="821.6700000000001" y="890" width="110" height="30" as="geometry"/>
                </mxCell>
                <mxCell id="85" value="" style="edgeStyle=none;orthogonalLoop=1;jettySize=auto;html=1;strokeWidth=2;" edge="1" parent="1">
                    <mxGeometry width="100" relative="1" as="geometry">
                        <mxPoint x="990" y="855" as="sourcePoint"/>
                        <mxPoint x="770" y="855" as="targetPoint"/>
                        <Array as="points"/>
                    </mxGeometry>
                </mxCell>
                <mxCell id="86" value="Store &lt;b&gt;B&lt;/b&gt; in Redis as ZList&amp;nbsp;&lt;span style=&quot;color: rgb(63, 63, 63); background-color: transparent;&quot;&gt;and&lt;/span&gt;&lt;div&gt;&lt;span style=&quot;color: rgb(63, 63, 63); background-color: transparent;&quot;&gt;keep incrementing while cached&lt;/span&gt;&lt;/div&gt;" style="text;html=1;align=center;verticalAlign=middle;resizable=0;points=[];autosize=1;strokeColor=none;fillColor=none;" vertex="1" parent="1">
                    <mxGeometry x="781.67" y="800" width="190" height="40" as="geometry"/>
                </mxCell>
                <mxCell id="88" value="1" style="ellipse;whiteSpace=wrap;html=1;aspect=fixed;rotation=0;gradientColor=#223548;strokeColor=none;gradientDirection=east;fillColor=#B266FF;rounded=0;pointerEvents=0;fontFamily=Helvetica;fontSize=16;fontColor=#FFFFFF;spacingTop=4;spacingBottom=4;spacingLeft=4;spacingRight=4;points=[];fontStyle=1" vertex="1" parent="1">
                    <mxGeometry x="495" y="830" width="20" height="20" as="geometry"/>
                </mxCell>
                <mxCell id="89" value="2" style="ellipse;whiteSpace=wrap;html=1;aspect=fixed;rotation=0;gradientColor=#223548;strokeColor=none;gradientDirection=east;fillColor=#B266FF;rounded=0;pointerEvents=0;fontFamily=Helvetica;fontSize=16;fontColor=#FFFFFF;spacingTop=4;spacingBottom=4;spacingLeft=4;spacingRight=4;points=[];fontStyle=1" vertex="1" parent="1">
                    <mxGeometry x="475" y="869" width="20" height="20" as="geometry"/>
                </mxCell>
                <mxCell id="92" value="1" style="ellipse;whiteSpace=wrap;html=1;aspect=fixed;rotation=0;gradientColor=#223548;strokeColor=none;gradientDirection=east;fillColor=#FF66B3;rounded=0;pointerEvents=0;fontFamily=Helvetica;fontSize=16;fontColor=#FFFFFF;spacingTop=4;spacingBottom=4;spacingLeft=4;spacingRight=4;points=[];fontStyle=1" vertex="1" parent="1">
                    <mxGeometry x="462.5" y="973" width="20" height="20" as="geometry"/>
                </mxCell>
                <mxCell id="94" value="2" style="ellipse;whiteSpace=wrap;html=1;aspect=fixed;rotation=0;gradientColor=#223548;strokeColor=none;gradientDirection=east;fillColor=#FF66B3;rounded=0;pointerEvents=0;fontFamily=Helvetica;fontSize=16;fontColor=#FFFFFF;spacingTop=4;spacingBottom=4;spacingLeft=4;spacingRight=4;points=[];fontStyle=1" vertex="1" parent="1">
                    <mxGeometry x="650.0000000000001" y="955" width="20" height="20" as="geometry"/>
                </mxCell>
                <mxCell id="95" value="3" style="ellipse;whiteSpace=wrap;html=1;aspect=fixed;rotation=0;gradientColor=#223548;strokeColor=none;gradientDirection=east;fillColor=#FF66B3;rounded=0;pointerEvents=0;fontFamily=Helvetica;fontSize=16;fontColor=#FFFFFF;spacingTop=4;spacingBottom=4;spacingLeft=4;spacingRight=4;points=[];fontStyle=1" vertex="1" parent="1">
                    <mxGeometry x="808.34" y="895" width="20" height="20" as="geometry"/>
                </mxCell>
                <mxCell id="97" style="edgeStyle=none;html=1;strokeColor=#3333FF;strokeWidth=2;" edge="1" parent="1">
                    <mxGeometry relative="1" as="geometry">
                        <mxPoint x="440" y="1040" as="targetPoint"/>
                        <mxPoint x="990" y="887" as="sourcePoint"/>
                        <Array as="points">
                            <mxPoint x="730" y="1040"/>
                        </Array>
                    </mxGeometry>
                </mxCell>
                <mxCell id="98" value="4" style="ellipse;whiteSpace=wrap;html=1;aspect=fixed;rotation=0;gradientColor=#223548;strokeColor=none;gradientDirection=east;fillColor=#FF66B3;rounded=0;pointerEvents=0;fontFamily=Helvetica;fontSize=16;fontColor=#FFFFFF;spacingTop=4;spacingBottom=4;spacingLeft=4;spacingRight=4;points=[];fontStyle=1" vertex="1" parent="1">
                    <mxGeometry x="770" y="810" width="20" height="20" as="geometry"/>
                </mxCell>
                <mxCell id="99" value="Return Leaderbaord" style="text;html=1;align=center;verticalAlign=middle;resizable=0;points=[];autosize=1;strokeColor=none;fillColor=none;" vertex="1" parent="1">
                    <mxGeometry x="806.6700000000001" y="998" width="130" height="30" as="geometry"/>
                </mxCell>
                <mxCell id="100" value="5" style="ellipse;whiteSpace=wrap;html=1;aspect=fixed;rotation=0;gradientColor=#223548;strokeColor=none;gradientDirection=east;fillColor=#FF66B3;rounded=0;pointerEvents=0;fontFamily=Helvetica;fontSize=16;fontColor=#FFFFFF;spacingTop=4;spacingBottom=4;spacingLeft=4;spacingRight=4;points=[];fontStyle=1" vertex="1" parent="1">
                    <mxGeometry x="790" y="1003" width="20" height="20" as="geometry"/>
                </mxCell>
            </root>
        </mxGraphModel>
    </diagram>
</mxfile>